<mxfile host="app.diagrams.net" agent="Mozilla/5.0 (Windows NT 10.0; Win64; x64) AppleWebKit/537.36 (KHTML, like Gecko) Chrome/134.0.0.0 Safari/537.36" version="26.1.1">
  <diagram name="Страница-1" id="W8pNPYcGzXyj4kJldKl0">
    <mxGraphModel dx="1500" dy="1976" grid="1" gridSize="10" guides="1" tooltips="1" connect="1" arrows="1" fold="1" page="1" pageScale="1" pageWidth="827" pageHeight="1169" math="0" shadow="0">
      <root>
        <mxCell id="0" />
        <mxCell id="1" parent="0" />
        <mxCell id="Uy-cb-LyqVgxh-2wFijv-1" value="" style="rounded=0;whiteSpace=wrap;html=1;" parent="1" vertex="1">
          <mxGeometry x="180" y="210" width="120" height="60" as="geometry" />
        </mxCell>
        <mxCell id="Uy-cb-LyqVgxh-2wFijv-2" value="user" style="text;html=1;align=center;verticalAlign=middle;whiteSpace=wrap;rounded=0;" parent="1" vertex="1">
          <mxGeometry x="210" y="225" width="60" height="30" as="geometry" />
        </mxCell>
        <mxCell id="Uy-cb-LyqVgxh-2wFijv-3" value="" style="ellipse;whiteSpace=wrap;html=1;" parent="1" vertex="1">
          <mxGeometry x="80" y="270" width="80" height="50" as="geometry" />
        </mxCell>
        <mxCell id="Uy-cb-LyqVgxh-2wFijv-4" value="" style="ellipse;whiteSpace=wrap;html=1;" parent="1" vertex="1">
          <mxGeometry x="60" y="210" width="80" height="50" as="geometry" />
        </mxCell>
        <mxCell id="Uy-cb-LyqVgxh-2wFijv-5" value="" style="ellipse;whiteSpace=wrap;html=1;" parent="1" vertex="1">
          <mxGeometry x="130" y="330" width="80" height="50" as="geometry" />
        </mxCell>
        <mxCell id="Uy-cb-LyqVgxh-2wFijv-6" value="" style="ellipse;whiteSpace=wrap;html=1;" parent="1" vertex="1">
          <mxGeometry x="90" y="150" width="80" height="50" as="geometry" />
        </mxCell>
        <mxCell id="Uy-cb-LyqVgxh-2wFijv-7" value="user_id" style="text;html=1;align=center;verticalAlign=middle;whiteSpace=wrap;rounded=0;" parent="1" vertex="1">
          <mxGeometry x="100" y="160" width="60" height="30" as="geometry" />
        </mxCell>
        <mxCell id="Uy-cb-LyqVgxh-2wFijv-8" value="name" style="text;html=1;align=center;verticalAlign=middle;whiteSpace=wrap;rounded=0;" parent="1" vertex="1">
          <mxGeometry x="70" y="220" width="60" height="30" as="geometry" />
        </mxCell>
        <mxCell id="Uy-cb-LyqVgxh-2wFijv-9" value="password" style="text;html=1;align=center;verticalAlign=middle;whiteSpace=wrap;rounded=0;" parent="1" vertex="1">
          <mxGeometry x="90" y="280" width="60" height="30" as="geometry" />
        </mxCell>
        <mxCell id="Uy-cb-LyqVgxh-2wFijv-10" value="email" style="text;html=1;align=center;verticalAlign=middle;whiteSpace=wrap;rounded=0;" parent="1" vertex="1">
          <mxGeometry x="140" y="340" width="60" height="30" as="geometry" />
        </mxCell>
        <mxCell id="Uy-cb-LyqVgxh-2wFijv-11" value="" style="endArrow=none;html=1;rounded=0;entryX=0;entryY=0;entryDx=0;entryDy=0;" parent="1" target="Uy-cb-LyqVgxh-2wFijv-1" edge="1">
          <mxGeometry width="50" height="50" relative="1" as="geometry">
            <mxPoint x="170" y="180" as="sourcePoint" />
            <mxPoint x="220" y="130" as="targetPoint" />
          </mxGeometry>
        </mxCell>
        <mxCell id="Uy-cb-LyqVgxh-2wFijv-12" value="" style="endArrow=none;html=1;rounded=0;entryX=0;entryY=0.5;entryDx=0;entryDy=0;" parent="1" target="Uy-cb-LyqVgxh-2wFijv-1" edge="1">
          <mxGeometry width="50" height="50" relative="1" as="geometry">
            <mxPoint x="140" y="235" as="sourcePoint" />
            <mxPoint x="200.71067811865476" y="235" as="targetPoint" />
          </mxGeometry>
        </mxCell>
        <mxCell id="Uy-cb-LyqVgxh-2wFijv-14" value="" style="endArrow=none;html=1;rounded=0;entryX=0;entryY=1;entryDx=0;entryDy=0;" parent="1" target="Uy-cb-LyqVgxh-2wFijv-1" edge="1">
          <mxGeometry width="50" height="50" relative="1" as="geometry">
            <mxPoint x="160" y="290" as="sourcePoint" />
            <mxPoint x="210" y="240" as="targetPoint" />
          </mxGeometry>
        </mxCell>
        <mxCell id="Uy-cb-LyqVgxh-2wFijv-15" value="" style="endArrow=none;html=1;rounded=0;entryX=0.25;entryY=1;entryDx=0;entryDy=0;" parent="1" target="Uy-cb-LyqVgxh-2wFijv-1" edge="1">
          <mxGeometry width="50" height="50" relative="1" as="geometry">
            <mxPoint x="170" y="330" as="sourcePoint" />
            <mxPoint x="220" y="280" as="targetPoint" />
          </mxGeometry>
        </mxCell>
        <mxCell id="Uy-cb-LyqVgxh-2wFijv-16" value="" style="rounded=0;whiteSpace=wrap;html=1;" parent="1" vertex="1">
          <mxGeometry x="280" y="40" width="120" height="60" as="geometry" />
        </mxCell>
        <mxCell id="Uy-cb-LyqVgxh-2wFijv-17" value="car" style="text;html=1;align=center;verticalAlign=middle;whiteSpace=wrap;rounded=0;" parent="1" vertex="1">
          <mxGeometry x="310" y="55" width="60" height="30" as="geometry" />
        </mxCell>
        <mxCell id="Uy-cb-LyqVgxh-2wFijv-18" value="" style="ellipse;whiteSpace=wrap;html=1;" parent="1" vertex="1">
          <mxGeometry x="130" y="25" width="80" height="60" as="geometry" />
        </mxCell>
        <mxCell id="Uy-cb-LyqVgxh-2wFijv-19" value="" style="ellipse;whiteSpace=wrap;html=1;" parent="1" vertex="1">
          <mxGeometry x="350" y="-100" width="80" height="60" as="geometry" />
        </mxCell>
        <mxCell id="Uy-cb-LyqVgxh-2wFijv-20" value="" style="ellipse;whiteSpace=wrap;html=1;" parent="1" vertex="1">
          <mxGeometry x="260" y="-120" width="80" height="60" as="geometry" />
        </mxCell>
        <mxCell id="Uy-cb-LyqVgxh-2wFijv-21" value="" style="ellipse;whiteSpace=wrap;html=1;" parent="1" vertex="1">
          <mxGeometry x="120" y="-40" width="80" height="60" as="geometry" />
        </mxCell>
        <mxCell id="Uy-cb-LyqVgxh-2wFijv-22" value="" style="ellipse;whiteSpace=wrap;html=1;" parent="1" vertex="1">
          <mxGeometry x="180" y="-90" width="80" height="60" as="geometry" />
        </mxCell>
        <mxCell id="Uy-cb-LyqVgxh-2wFijv-23" value="" style="ellipse;whiteSpace=wrap;html=1;" parent="1" vertex="1">
          <mxGeometry x="430" y="-70" width="80" height="60" as="geometry" />
        </mxCell>
        <mxCell id="Uy-cb-LyqVgxh-2wFijv-24" value="" style="endArrow=none;html=1;rounded=0;entryX=0;entryY=0.5;entryDx=0;entryDy=0;" parent="1" target="Uy-cb-LyqVgxh-2wFijv-16" edge="1">
          <mxGeometry width="50" height="50" relative="1" as="geometry">
            <mxPoint x="210" y="60" as="sourcePoint" />
            <mxPoint x="260" y="10" as="targetPoint" />
          </mxGeometry>
        </mxCell>
        <mxCell id="Uy-cb-LyqVgxh-2wFijv-25" value="" style="endArrow=none;html=1;rounded=0;entryX=0;entryY=0.25;entryDx=0;entryDy=0;" parent="1" target="Uy-cb-LyqVgxh-2wFijv-16" edge="1">
          <mxGeometry width="50" height="50" relative="1" as="geometry">
            <mxPoint x="200" y="-10" as="sourcePoint" />
            <mxPoint x="250" y="-60" as="targetPoint" />
          </mxGeometry>
        </mxCell>
        <mxCell id="Uy-cb-LyqVgxh-2wFijv-26" value="" style="endArrow=none;html=1;rounded=0;entryX=0;entryY=0;entryDx=0;entryDy=0;" parent="1" target="Uy-cb-LyqVgxh-2wFijv-16" edge="1">
          <mxGeometry width="50" height="50" relative="1" as="geometry">
            <mxPoint x="250" y="-40" as="sourcePoint" />
            <mxPoint x="300" y="-90" as="targetPoint" />
          </mxGeometry>
        </mxCell>
        <mxCell id="Uy-cb-LyqVgxh-2wFijv-27" value="" style="endArrow=none;html=1;rounded=0;exitX=0.25;exitY=0;exitDx=0;exitDy=0;" parent="1" source="Uy-cb-LyqVgxh-2wFijv-16" edge="1">
          <mxGeometry width="50" height="50" relative="1" as="geometry">
            <mxPoint x="260" y="-10" as="sourcePoint" />
            <mxPoint x="310" y="-60" as="targetPoint" />
          </mxGeometry>
        </mxCell>
        <mxCell id="Uy-cb-LyqVgxh-2wFijv-28" value="" style="endArrow=none;html=1;rounded=0;exitX=0.5;exitY=0;exitDx=0;exitDy=0;" parent="1" source="Uy-cb-LyqVgxh-2wFijv-16" edge="1">
          <mxGeometry width="50" height="50" relative="1" as="geometry">
            <mxPoint x="310" as="sourcePoint" />
            <mxPoint x="360" y="-50" as="targetPoint" />
          </mxGeometry>
        </mxCell>
        <mxCell id="Uy-cb-LyqVgxh-2wFijv-29" value="" style="endArrow=none;html=1;rounded=0;exitX=0.75;exitY=0;exitDx=0;exitDy=0;" parent="1" source="Uy-cb-LyqVgxh-2wFijv-16" edge="1">
          <mxGeometry width="50" height="50" relative="1" as="geometry">
            <mxPoint x="390" y="30" as="sourcePoint" />
            <mxPoint x="440" y="-20" as="targetPoint" />
          </mxGeometry>
        </mxCell>
        <mxCell id="Uy-cb-LyqVgxh-2wFijv-30" value="car_id" style="text;html=1;align=center;verticalAlign=middle;whiteSpace=wrap;rounded=0;" parent="1" vertex="1">
          <mxGeometry x="140" y="40" width="60" height="30" as="geometry" />
        </mxCell>
        <mxCell id="Uy-cb-LyqVgxh-2wFijv-31" value="user_id" style="text;html=1;align=center;verticalAlign=middle;whiteSpace=wrap;rounded=0;" parent="1" vertex="1">
          <mxGeometry x="130" y="-25" width="60" height="30" as="geometry" />
        </mxCell>
        <mxCell id="Uy-cb-LyqVgxh-2wFijv-32" value="brand" style="text;html=1;align=center;verticalAlign=middle;whiteSpace=wrap;rounded=0;" parent="1" vertex="1">
          <mxGeometry x="190" y="-75" width="60" height="30" as="geometry" />
        </mxCell>
        <mxCell id="Uy-cb-LyqVgxh-2wFijv-33" value="model" style="text;html=1;align=center;verticalAlign=middle;whiteSpace=wrap;rounded=0;" parent="1" vertex="1">
          <mxGeometry x="270" y="-105" width="60" height="30" as="geometry" />
        </mxCell>
        <mxCell id="Uy-cb-LyqVgxh-2wFijv-34" value="year" style="text;html=1;align=center;verticalAlign=middle;whiteSpace=wrap;rounded=0;" parent="1" vertex="1">
          <mxGeometry x="360" y="-85" width="60" height="30" as="geometry" />
        </mxCell>
        <mxCell id="Uy-cb-LyqVgxh-2wFijv-35" value="rg_number" style="text;html=1;align=center;verticalAlign=middle;whiteSpace=wrap;rounded=0;" parent="1" vertex="1">
          <mxGeometry x="440" y="-55" width="60" height="30" as="geometry" />
        </mxCell>
        <mxCell id="Uy-cb-LyqVgxh-2wFijv-36" value="" style="endArrow=none;html=1;rounded=0;entryX=0.5;entryY=1;entryDx=0;entryDy=0;" parent="1" target="Uy-cb-LyqVgxh-2wFijv-16" edge="1">
          <mxGeometry width="50" height="50" relative="1" as="geometry">
            <mxPoint x="240" y="210" as="sourcePoint" />
            <mxPoint x="290" y="160" as="targetPoint" />
          </mxGeometry>
        </mxCell>
        <mxCell id="Uy-cb-LyqVgxh-2wFijv-37" value="M" style="text;html=1;align=center;verticalAlign=middle;whiteSpace=wrap;rounded=0;" parent="1" vertex="1">
          <mxGeometry x="280" y="100" width="60" height="30" as="geometry" />
        </mxCell>
        <mxCell id="Uy-cb-LyqVgxh-2wFijv-38" value="" style="rounded=0;whiteSpace=wrap;html=1;" parent="1" vertex="1">
          <mxGeometry x="880" y="-20" width="120" height="60" as="geometry" />
        </mxCell>
        <mxCell id="Uy-cb-LyqVgxh-2wFijv-39" value="services" style="text;html=1;align=center;verticalAlign=middle;whiteSpace=wrap;rounded=0;" parent="1" vertex="1">
          <mxGeometry x="910" y="-5" width="60" height="30" as="geometry" />
        </mxCell>
        <mxCell id="Uy-cb-LyqVgxh-2wFijv-40" value="" style="ellipse;whiteSpace=wrap;html=1;" parent="1" vertex="1">
          <mxGeometry x="840" y="-120" width="80" height="60" as="geometry" />
        </mxCell>
        <mxCell id="Uy-cb-LyqVgxh-2wFijv-41" value="" style="ellipse;whiteSpace=wrap;html=1;" parent="1" vertex="1">
          <mxGeometry x="740" y="-105" width="80" height="60" as="geometry" />
        </mxCell>
        <mxCell id="Uy-cb-LyqVgxh-2wFijv-42" value="" style="ellipse;whiteSpace=wrap;html=1;" parent="1" vertex="1">
          <mxGeometry x="930" y="-115" width="80" height="60" as="geometry" />
        </mxCell>
        <mxCell id="Uy-cb-LyqVgxh-2wFijv-43" value="" style="ellipse;whiteSpace=wrap;html=1;" parent="1" vertex="1">
          <mxGeometry x="1030" y="-100" width="80" height="60" as="geometry" />
        </mxCell>
        <mxCell id="Uy-cb-LyqVgxh-2wFijv-44" value="services_id" style="text;html=1;align=center;verticalAlign=middle;whiteSpace=wrap;rounded=0;" parent="1" vertex="1">
          <mxGeometry x="750" y="-90" width="60" height="30" as="geometry" />
        </mxCell>
        <mxCell id="Uy-cb-LyqVgxh-2wFijv-45" value="name" style="text;html=1;align=center;verticalAlign=middle;whiteSpace=wrap;rounded=0;" parent="1" vertex="1">
          <mxGeometry x="850" y="-105" width="60" height="30" as="geometry" />
        </mxCell>
        <mxCell id="Uy-cb-LyqVgxh-2wFijv-46" value="description" style="text;html=1;align=center;verticalAlign=middle;whiteSpace=wrap;rounded=0;" parent="1" vertex="1">
          <mxGeometry x="940" y="-100" width="60" height="30" as="geometry" />
        </mxCell>
        <mxCell id="Uy-cb-LyqVgxh-2wFijv-47" value="price" style="text;html=1;align=center;verticalAlign=middle;whiteSpace=wrap;rounded=0;" parent="1" vertex="1">
          <mxGeometry x="1040" y="-85" width="60" height="30" as="geometry" />
        </mxCell>
        <mxCell id="Uy-cb-LyqVgxh-2wFijv-48" value="" style="endArrow=none;html=1;rounded=0;exitX=0;exitY=0.25;exitDx=0;exitDy=0;" parent="1" source="Uy-cb-LyqVgxh-2wFijv-38" edge="1">
          <mxGeometry width="50" height="50" relative="1" as="geometry">
            <mxPoint x="750" as="sourcePoint" />
            <mxPoint x="800" y="-50" as="targetPoint" />
          </mxGeometry>
        </mxCell>
        <mxCell id="Uy-cb-LyqVgxh-2wFijv-49" value="" style="endArrow=none;html=1;rounded=0;exitX=0;exitY=0;exitDx=0;exitDy=0;" parent="1" source="Uy-cb-LyqVgxh-2wFijv-38" edge="1">
          <mxGeometry width="50" height="50" relative="1" as="geometry">
            <mxPoint x="820" y="-10" as="sourcePoint" />
            <mxPoint x="870" y="-60" as="targetPoint" />
          </mxGeometry>
        </mxCell>
        <mxCell id="Uy-cb-LyqVgxh-2wFijv-50" value="" style="endArrow=none;html=1;rounded=0;exitX=0.25;exitY=0;exitDx=0;exitDy=0;" parent="1" source="Uy-cb-LyqVgxh-2wFijv-38" edge="1">
          <mxGeometry width="50" height="50" relative="1" as="geometry">
            <mxPoint x="900" y="-10" as="sourcePoint" />
            <mxPoint x="950" y="-60" as="targetPoint" />
          </mxGeometry>
        </mxCell>
        <mxCell id="Uy-cb-LyqVgxh-2wFijv-51" value="" style="endArrow=none;html=1;rounded=0;exitX=0.75;exitY=0;exitDx=0;exitDy=0;" parent="1" source="Uy-cb-LyqVgxh-2wFijv-38" edge="1">
          <mxGeometry width="50" height="50" relative="1" as="geometry">
            <mxPoint x="990" as="sourcePoint" />
            <mxPoint x="1040" y="-50" as="targetPoint" />
          </mxGeometry>
        </mxCell>
        <mxCell id="Uy-cb-LyqVgxh-2wFijv-52" value="" style="rounded=0;whiteSpace=wrap;html=1;" parent="1" vertex="1">
          <mxGeometry x="990" y="325" width="120" height="60" as="geometry" />
        </mxCell>
        <mxCell id="Uy-cb-LyqVgxh-2wFijv-53" value="carService" style="text;html=1;align=center;verticalAlign=middle;whiteSpace=wrap;rounded=0;" parent="1" vertex="1">
          <mxGeometry x="1020" y="340" width="60" height="30" as="geometry" />
        </mxCell>
        <mxCell id="Uy-cb-LyqVgxh-2wFijv-54" value="" style="ellipse;whiteSpace=wrap;html=1;" parent="1" vertex="1">
          <mxGeometry x="890" y="430" width="80" height="50" as="geometry" />
        </mxCell>
        <mxCell id="Uy-cb-LyqVgxh-2wFijv-55" value="" style="ellipse;whiteSpace=wrap;html=1;" parent="1" vertex="1">
          <mxGeometry x="840" y="370" width="80" height="50" as="geometry" />
        </mxCell>
        <mxCell id="Uy-cb-LyqVgxh-2wFijv-56" value="" style="ellipse;whiteSpace=wrap;html=1;" parent="1" vertex="1">
          <mxGeometry x="1000" y="440" width="80" height="50" as="geometry" />
        </mxCell>
        <mxCell id="Uy-cb-LyqVgxh-2wFijv-57" value="" style="ellipse;whiteSpace=wrap;html=1;" parent="1" vertex="1">
          <mxGeometry x="1090" y="430" width="80" height="50" as="geometry" />
        </mxCell>
        <mxCell id="Uy-cb-LyqVgxh-2wFijv-58" value="" style="ellipse;whiteSpace=wrap;html=1;" parent="1" vertex="1">
          <mxGeometry x="1180" y="400" width="80" height="50" as="geometry" />
        </mxCell>
        <mxCell id="Uy-cb-LyqVgxh-2wFijv-59" value="" style="endArrow=none;html=1;rounded=0;exitX=1;exitY=0.5;exitDx=0;exitDy=0;" parent="1" source="Uy-cb-LyqVgxh-2wFijv-55" edge="1">
          <mxGeometry width="50" height="50" relative="1" as="geometry">
            <mxPoint x="940" y="400" as="sourcePoint" />
            <mxPoint x="990" y="350" as="targetPoint" />
          </mxGeometry>
        </mxCell>
        <mxCell id="Uy-cb-LyqVgxh-2wFijv-60" value="" style="endArrow=none;html=1;rounded=0;entryX=0;entryY=0.75;entryDx=0;entryDy=0;" parent="1" target="Uy-cb-LyqVgxh-2wFijv-52" edge="1">
          <mxGeometry width="50" height="50" relative="1" as="geometry">
            <mxPoint x="930" y="430" as="sourcePoint" />
            <mxPoint x="980" y="380" as="targetPoint" />
          </mxGeometry>
        </mxCell>
        <mxCell id="Uy-cb-LyqVgxh-2wFijv-61" value="" style="endArrow=none;html=1;rounded=0;entryX=0.25;entryY=1;entryDx=0;entryDy=0;exitX=0.5;exitY=0;exitDx=0;exitDy=0;" parent="1" source="Uy-cb-LyqVgxh-2wFijv-56" target="Uy-cb-LyqVgxh-2wFijv-52" edge="1">
          <mxGeometry width="50" height="50" relative="1" as="geometry">
            <mxPoint x="1010" y="450" as="sourcePoint" />
            <mxPoint x="1060" y="400" as="targetPoint" />
          </mxGeometry>
        </mxCell>
        <mxCell id="Uy-cb-LyqVgxh-2wFijv-62" value="" style="endArrow=none;html=1;rounded=0;entryX=0.5;entryY=1;entryDx=0;entryDy=0;" parent="1" target="Uy-cb-LyqVgxh-2wFijv-52" edge="1">
          <mxGeometry width="50" height="50" relative="1" as="geometry">
            <mxPoint x="1120" y="430" as="sourcePoint" />
            <mxPoint x="1170" y="380" as="targetPoint" />
          </mxGeometry>
        </mxCell>
        <mxCell id="Uy-cb-LyqVgxh-2wFijv-63" value="" style="endArrow=none;html=1;rounded=0;entryX=1;entryY=1;entryDx=0;entryDy=0;" parent="1" target="Uy-cb-LyqVgxh-2wFijv-52" edge="1">
          <mxGeometry width="50" height="50" relative="1" as="geometry">
            <mxPoint x="1210" y="400" as="sourcePoint" />
            <mxPoint x="1260" y="350" as="targetPoint" />
          </mxGeometry>
        </mxCell>
        <mxCell id="Uy-cb-LyqVgxh-2wFijv-64" value="carService_id" style="text;html=1;align=center;verticalAlign=middle;whiteSpace=wrap;rounded=0;" parent="1" vertex="1">
          <mxGeometry x="850" y="380" width="60" height="30" as="geometry" />
        </mxCell>
        <mxCell id="Uy-cb-LyqVgxh-2wFijv-65" value="name" style="text;html=1;align=center;verticalAlign=middle;whiteSpace=wrap;rounded=0;" parent="1" vertex="1">
          <mxGeometry x="900" y="440" width="60" height="30" as="geometry" />
        </mxCell>
        <mxCell id="Uy-cb-LyqVgxh-2wFijv-66" value="location" style="text;html=1;align=center;verticalAlign=middle;whiteSpace=wrap;rounded=0;" parent="1" vertex="1">
          <mxGeometry x="1010" y="450" width="60" height="30" as="geometry" />
        </mxCell>
        <mxCell id="Uy-cb-LyqVgxh-2wFijv-67" value="email" style="text;html=1;align=center;verticalAlign=middle;whiteSpace=wrap;rounded=0;" parent="1" vertex="1">
          <mxGeometry x="1100" y="440" width="60" height="30" as="geometry" />
        </mxCell>
        <mxCell id="Uy-cb-LyqVgxh-2wFijv-68" value="phone" style="text;html=1;align=center;verticalAlign=middle;whiteSpace=wrap;rounded=0;" parent="1" vertex="1">
          <mxGeometry x="1190" y="410" width="60" height="30" as="geometry" />
        </mxCell>
        <mxCell id="Uy-cb-LyqVgxh-2wFijv-69" value="" style="rounded=0;whiteSpace=wrap;html=1;" parent="1" vertex="1">
          <mxGeometry x="430" y="500" width="120" height="60" as="geometry" />
        </mxCell>
        <mxCell id="Uy-cb-LyqVgxh-2wFijv-70" value="request" style="text;html=1;align=center;verticalAlign=middle;whiteSpace=wrap;rounded=0;" parent="1" vertex="1">
          <mxGeometry x="460" y="515" width="60" height="30" as="geometry" />
        </mxCell>
        <mxCell id="Uy-cb-LyqVgxh-2wFijv-71" value="" style="ellipse;whiteSpace=wrap;html=1;" parent="1" vertex="1">
          <mxGeometry x="360" y="585" width="80" height="50" as="geometry" />
        </mxCell>
        <mxCell id="Uy-cb-LyqVgxh-2wFijv-72" value="" style="ellipse;whiteSpace=wrap;html=1;" parent="1" vertex="1">
          <mxGeometry x="290" y="535" width="80" height="50" as="geometry" />
        </mxCell>
        <mxCell id="Uy-cb-LyqVgxh-2wFijv-73" value="" style="ellipse;whiteSpace=wrap;html=1;" parent="1" vertex="1">
          <mxGeometry x="414" y="630" width="80" height="50" as="geometry" />
        </mxCell>
        <mxCell id="Uy-cb-LyqVgxh-2wFijv-74" value="" style="ellipse;whiteSpace=wrap;html=1;" parent="1" vertex="1">
          <mxGeometry x="510" y="610" width="80" height="50" as="geometry" />
        </mxCell>
        <mxCell id="Uy-cb-LyqVgxh-2wFijv-75" value="request_id" style="text;html=1;align=center;verticalAlign=middle;whiteSpace=wrap;rounded=0;" parent="1" vertex="1">
          <mxGeometry x="300" y="545" width="60" height="30" as="geometry" />
        </mxCell>
        <mxCell id="Uy-cb-LyqVgxh-2wFijv-76" value="car_id" style="text;html=1;align=center;verticalAlign=middle;whiteSpace=wrap;rounded=0;" parent="1" vertex="1">
          <mxGeometry x="370" y="595" width="60" height="30" as="geometry" />
        </mxCell>
        <mxCell id="Uy-cb-LyqVgxh-2wFijv-77" value="status" style="text;html=1;align=center;verticalAlign=middle;whiteSpace=wrap;rounded=0;" parent="1" vertex="1">
          <mxGeometry x="424" y="640" width="60" height="30" as="geometry" />
        </mxCell>
        <mxCell id="Uy-cb-LyqVgxh-2wFijv-78" value="createdOn" style="text;html=1;align=center;verticalAlign=middle;whiteSpace=wrap;rounded=0;" parent="1" vertex="1">
          <mxGeometry x="520" y="620" width="60" height="30" as="geometry" />
        </mxCell>
        <mxCell id="Uy-cb-LyqVgxh-2wFijv-79" value="" style="endArrow=none;html=1;rounded=0;entryX=0;entryY=0.5;entryDx=0;entryDy=0;exitX=1;exitY=0;exitDx=0;exitDy=0;" parent="1" target="Uy-cb-LyqVgxh-2wFijv-69" edge="1" source="Uy-cb-LyqVgxh-2wFijv-72">
          <mxGeometry width="50" height="50" relative="1" as="geometry">
            <mxPoint x="340" y="350" as="sourcePoint" />
            <mxPoint x="390" y="300" as="targetPoint" />
          </mxGeometry>
        </mxCell>
        <mxCell id="Uy-cb-LyqVgxh-2wFijv-80" value="" style="endArrow=none;html=1;rounded=0;entryX=0.407;entryY=1.013;entryDx=0;entryDy=0;entryPerimeter=0;" parent="1" edge="1" target="Uy-cb-LyqVgxh-2wFijv-69">
          <mxGeometry width="50" height="50" relative="1" as="geometry">
            <mxPoint x="460" y="630" as="sourcePoint" />
            <mxPoint x="490" y="600" as="targetPoint" />
          </mxGeometry>
        </mxCell>
        <mxCell id="Uy-cb-LyqVgxh-2wFijv-81" value="" style="endArrow=none;html=1;rounded=0;entryX=0.25;entryY=1;entryDx=0;entryDy=0;exitX=1;exitY=0;exitDx=0;exitDy=0;" parent="1" target="Uy-cb-LyqVgxh-2wFijv-69" edge="1" source="Uy-cb-LyqVgxh-2wFijv-71">
          <mxGeometry width="50" height="50" relative="1" as="geometry">
            <mxPoint x="410" y="410" as="sourcePoint" />
            <mxPoint x="460" y="360" as="targetPoint" />
          </mxGeometry>
        </mxCell>
        <mxCell id="Uy-cb-LyqVgxh-2wFijv-82" value="" style="endArrow=none;html=1;rounded=0;entryX=0.75;entryY=1;entryDx=0;entryDy=0;exitX=0.4;exitY=-0.008;exitDx=0;exitDy=0;exitPerimeter=0;" parent="1" target="Uy-cb-LyqVgxh-2wFijv-69" edge="1" source="Uy-cb-LyqVgxh-2wFijv-74">
          <mxGeometry width="50" height="50" relative="1" as="geometry">
            <mxPoint x="500" y="410" as="sourcePoint" />
            <mxPoint x="550" y="360" as="targetPoint" />
          </mxGeometry>
        </mxCell>
        <mxCell id="Uy-cb-LyqVgxh-2wFijv-85" value="" style="rhombus;whiteSpace=wrap;html=1;" parent="1" vertex="1">
          <mxGeometry x="990" y="120" width="140" height="60" as="geometry" />
        </mxCell>
        <mxCell id="Uy-cb-LyqVgxh-2wFijv-86" value="carService_services" style="text;html=1;align=center;verticalAlign=middle;whiteSpace=wrap;rounded=0;" parent="1" vertex="1">
          <mxGeometry x="1030" y="135" width="60" height="30" as="geometry" />
        </mxCell>
        <mxCell id="Uy-cb-LyqVgxh-2wFijv-87" value="" style="endArrow=none;html=1;rounded=0;exitX=0.5;exitY=0;exitDx=0;exitDy=0;" parent="1" source="Uy-cb-LyqVgxh-2wFijv-85" edge="1">
          <mxGeometry width="50" height="50" relative="1" as="geometry">
            <mxPoint x="890" y="90" as="sourcePoint" />
            <mxPoint x="940" y="40" as="targetPoint" />
          </mxGeometry>
        </mxCell>
        <mxCell id="Uy-cb-LyqVgxh-2wFijv-88" value="" style="endArrow=none;html=1;rounded=0;exitX=0.5;exitY=0;exitDx=0;exitDy=0;" parent="1" source="Uy-cb-LyqVgxh-2wFijv-52" edge="1">
          <mxGeometry width="50" height="50" relative="1" as="geometry">
            <mxPoint x="1120" y="290" as="sourcePoint" />
            <mxPoint x="1060" y="180" as="targetPoint" />
          </mxGeometry>
        </mxCell>
        <mxCell id="Uy-cb-LyqVgxh-2wFijv-89" value="M" style="text;html=1;align=center;verticalAlign=middle;whiteSpace=wrap;rounded=0;" parent="1" vertex="1">
          <mxGeometry x="1000" y="295" width="60" height="30" as="geometry" />
        </mxCell>
        <mxCell id="Uy-cb-LyqVgxh-2wFijv-91" value="M" style="text;html=1;align=center;verticalAlign=middle;whiteSpace=wrap;rounded=0;" parent="1" vertex="1">
          <mxGeometry x="900" y="40" width="60" height="30" as="geometry" />
        </mxCell>
        <mxCell id="Uy-cb-LyqVgxh-2wFijv-93" value="" style="rhombus;whiteSpace=wrap;html=1;" parent="1" vertex="1">
          <mxGeometry x="610" y="130" width="140" height="60" as="geometry" />
        </mxCell>
        <mxCell id="Uy-cb-LyqVgxh-2wFijv-94" value="requestServices" style="text;html=1;align=center;verticalAlign=middle;whiteSpace=wrap;rounded=0;" parent="1" vertex="1">
          <mxGeometry x="650" y="145" width="60" height="30" as="geometry" />
        </mxCell>
        <mxCell id="Uy-cb-LyqVgxh-2wFijv-95" value="" style="endArrow=none;html=1;rounded=0;entryX=0.5;entryY=1;entryDx=0;entryDy=0;exitX=0.75;exitY=0;exitDx=0;exitDy=0;" parent="1" target="Uy-cb-LyqVgxh-2wFijv-93" edge="1" source="Uy-cb-LyqVgxh-2wFijv-69">
          <mxGeometry width="50" height="50" relative="1" as="geometry">
            <mxPoint x="480" y="310" as="sourcePoint" />
            <mxPoint x="530" y="260" as="targetPoint" />
          </mxGeometry>
        </mxCell>
        <mxCell id="Uy-cb-LyqVgxh-2wFijv-96" value="" style="endArrow=none;html=1;rounded=0;entryX=0;entryY=1;entryDx=0;entryDy=0;" parent="1" target="Uy-cb-LyqVgxh-2wFijv-38" edge="1">
          <mxGeometry width="50" height="50" relative="1" as="geometry">
            <mxPoint x="680" y="130" as="sourcePoint" />
            <mxPoint x="730" y="80" as="targetPoint" />
          </mxGeometry>
        </mxCell>
        <mxCell id="Uy-cb-LyqVgxh-2wFijv-97" value="M" style="text;html=1;align=center;verticalAlign=middle;whiteSpace=wrap;rounded=0;" parent="1" vertex="1">
          <mxGeometry x="484" y="470" width="60" height="30" as="geometry" />
        </mxCell>
        <mxCell id="Uy-cb-LyqVgxh-2wFijv-100" value="M" style="text;html=1;align=center;verticalAlign=middle;whiteSpace=wrap;rounded=0;" parent="1" vertex="1">
          <mxGeometry x="820" y="20" width="60" height="30" as="geometry" />
        </mxCell>
        <mxCell id="zA_T5pfZE3ijJPjRbrxf-1" value="" style="ellipse;whiteSpace=wrap;html=1;" parent="1" vertex="1">
          <mxGeometry x="170" y="135" width="90" height="50" as="geometry" />
        </mxCell>
        <mxCell id="zA_T5pfZE3ijJPjRbrxf-2" value="role" style="text;html=1;align=center;verticalAlign=middle;whiteSpace=wrap;rounded=0;" parent="1" vertex="1">
          <mxGeometry x="180" y="145" width="60" height="30" as="geometry" />
        </mxCell>
        <mxCell id="zA_T5pfZE3ijJPjRbrxf-3" value="" style="endArrow=none;html=1;rounded=0;exitX=0.157;exitY=0.02;exitDx=0;exitDy=0;exitPerimeter=0;" parent="1" source="Uy-cb-LyqVgxh-2wFijv-1" edge="1">
          <mxGeometry width="50" height="50" relative="1" as="geometry">
            <mxPoint x="190" y="230" as="sourcePoint" />
            <mxPoint x="240" y="180" as="targetPoint" />
          </mxGeometry>
        </mxCell>
        <mxCell id="zA_T5pfZE3ijJPjRbrxf-4" value="" style="ellipse;whiteSpace=wrap;html=1;" parent="1" vertex="1">
          <mxGeometry x="290" y="155" width="80" height="45" as="geometry" />
        </mxCell>
        <mxCell id="zA_T5pfZE3ijJPjRbrxf-5" value="" style="ellipse;whiteSpace=wrap;html=1;" parent="1" vertex="1">
          <mxGeometry x="310" y="217.5" width="80" height="45" as="geometry" />
        </mxCell>
        <mxCell id="zA_T5pfZE3ijJPjRbrxf-6" value="" style="endArrow=none;html=1;rounded=0;exitX=0.75;exitY=0;exitDx=0;exitDy=0;" parent="1" source="Uy-cb-LyqVgxh-2wFijv-1" edge="1">
          <mxGeometry width="50" height="50" relative="1" as="geometry">
            <mxPoint x="250" y="240" as="sourcePoint" />
            <mxPoint x="300" y="190" as="targetPoint" />
          </mxGeometry>
        </mxCell>
        <mxCell id="zA_T5pfZE3ijJPjRbrxf-7" value="" style="endArrow=none;html=1;rounded=0;exitX=1;exitY=0.5;exitDx=0;exitDy=0;" parent="1" source="Uy-cb-LyqVgxh-2wFijv-1" edge="1">
          <mxGeometry width="50" height="50" relative="1" as="geometry">
            <mxPoint x="270" y="300" as="sourcePoint" />
            <mxPoint x="320" y="250" as="targetPoint" />
          </mxGeometry>
        </mxCell>
        <mxCell id="zA_T5pfZE3ijJPjRbrxf-8" value="phone" style="text;html=1;align=center;verticalAlign=middle;whiteSpace=wrap;rounded=0;" parent="1" vertex="1">
          <mxGeometry x="300" y="163" width="60" height="30" as="geometry" />
        </mxCell>
        <mxCell id="zA_T5pfZE3ijJPjRbrxf-9" value="address" style="text;html=1;align=center;verticalAlign=middle;whiteSpace=wrap;rounded=0;" parent="1" vertex="1">
          <mxGeometry x="320" y="225" width="60" height="30" as="geometry" />
        </mxCell>
        <mxCell id="zA_T5pfZE3ijJPjRbrxf-10" value="" style="ellipse;whiteSpace=wrap;html=1;" parent="1" vertex="1">
          <mxGeometry x="600" y="575" width="80" height="55" as="geometry" />
        </mxCell>
        <mxCell id="zA_T5pfZE3ijJPjRbrxf-11" value="" style="endArrow=none;html=1;rounded=0;exitX=1;exitY=1;exitDx=0;exitDy=0;" parent="1" target="zA_T5pfZE3ijJPjRbrxf-10" edge="1" source="Uy-cb-LyqVgxh-2wFijv-69">
          <mxGeometry width="50" height="50" relative="1" as="geometry">
            <mxPoint x="490" y="370" as="sourcePoint" />
            <mxPoint x="540" y="320" as="targetPoint" />
          </mxGeometry>
        </mxCell>
        <mxCell id="zA_T5pfZE3ijJPjRbrxf-14" value="user_id" style="text;html=1;align=center;verticalAlign=middle;whiteSpace=wrap;rounded=0;" parent="1" vertex="1">
          <mxGeometry x="610" y="585" width="60" height="30" as="geometry" />
        </mxCell>
        <mxCell id="zA_T5pfZE3ijJPjRbrxf-15" value="" style="ellipse;whiteSpace=wrap;html=1;" parent="1" vertex="1">
          <mxGeometry x="640" y="520" width="80" height="55" as="geometry" />
        </mxCell>
        <mxCell id="zA_T5pfZE3ijJPjRbrxf-16" value="completedOn" style="text;html=1;align=center;verticalAlign=middle;whiteSpace=wrap;rounded=0;" parent="1" vertex="1">
          <mxGeometry x="650" y="530" width="60" height="30" as="geometry" />
        </mxCell>
        <mxCell id="zA_T5pfZE3ijJPjRbrxf-17" value="" style="ellipse;whiteSpace=wrap;html=1;" parent="1" vertex="1">
          <mxGeometry x="650" y="455" width="90" height="55" as="geometry" />
        </mxCell>
        <mxCell id="zA_T5pfZE3ijJPjRbrxf-18" value="modified_request" style="text;html=1;align=center;verticalAlign=middle;whiteSpace=wrap;rounded=0;" parent="1" vertex="1">
          <mxGeometry x="665" y="467.5" width="60" height="30" as="geometry" />
        </mxCell>
        <mxCell id="zA_T5pfZE3ijJPjRbrxf-19" value="" style="endArrow=none;html=1;rounded=0;entryX=0.009;entryY=0.644;entryDx=0;entryDy=0;entryPerimeter=0;" parent="1" edge="1" target="zA_T5pfZE3ijJPjRbrxf-17">
          <mxGeometry width="50" height="50" relative="1" as="geometry">
            <mxPoint x="550" y="530" as="sourcePoint" />
            <mxPoint x="600" y="480" as="targetPoint" />
          </mxGeometry>
        </mxCell>
        <mxCell id="zA_T5pfZE3ijJPjRbrxf-20" value="" style="endArrow=none;html=1;rounded=0;exitX=1;exitY=0.75;exitDx=0;exitDy=0;entryX=0;entryY=0.5;entryDx=0;entryDy=0;" parent="1" source="Uy-cb-LyqVgxh-2wFijv-69" edge="1" target="zA_T5pfZE3ijJPjRbrxf-15">
          <mxGeometry width="50" height="50" relative="1" as="geometry">
            <mxPoint x="500" y="400" as="sourcePoint" />
            <mxPoint x="550" y="350" as="targetPoint" />
          </mxGeometry>
        </mxCell>
        <mxCell id="pdf4x7FtPYtWmwUbSwYa-4" value="M" style="text;html=1;align=center;verticalAlign=middle;whiteSpace=wrap;rounded=0;" vertex="1" parent="1">
          <mxGeometry x="370" y="480" width="60" height="30" as="geometry" />
        </mxCell>
        <mxCell id="pdf4x7FtPYtWmwUbSwYa-10" value="" style="endArrow=none;html=1;rounded=0;entryX=0;entryY=0.25;entryDx=0;entryDy=0;exitX=0.75;exitY=1;exitDx=0;exitDy=0;" edge="1" parent="1" source="Uy-cb-LyqVgxh-2wFijv-1" target="Uy-cb-LyqVgxh-2wFijv-69">
          <mxGeometry width="50" height="50" relative="1" as="geometry">
            <mxPoint x="280" y="470" as="sourcePoint" />
            <mxPoint x="330" y="420" as="targetPoint" />
          </mxGeometry>
        </mxCell>
        <mxCell id="pdf4x7FtPYtWmwUbSwYa-13" value="" style="endArrow=none;html=1;rounded=0;entryX=0.25;entryY=0;entryDx=0;entryDy=0;" edge="1" parent="1" target="Uy-cb-LyqVgxh-2wFijv-69">
          <mxGeometry width="50" height="50" relative="1" as="geometry">
            <mxPoint x="400" y="95" as="sourcePoint" />
            <mxPoint x="480" y="410" as="targetPoint" />
          </mxGeometry>
        </mxCell>
        <mxCell id="pdf4x7FtPYtWmwUbSwYa-15" value="M" style="text;html=1;align=center;verticalAlign=middle;whiteSpace=wrap;rounded=0;" vertex="1" parent="1">
          <mxGeometry x="410" y="470" width="60" height="30" as="geometry" />
        </mxCell>
        <mxCell id="pdf4x7FtPYtWmwUbSwYa-16" value="" style="ellipse;whiteSpace=wrap;html=1;" vertex="1" parent="1">
          <mxGeometry x="635" y="365" width="120" height="75" as="geometry" />
        </mxCell>
        <mxCell id="pdf4x7FtPYtWmwUbSwYa-17" value="services_Id" style="text;html=1;align=center;verticalAlign=middle;whiteSpace=wrap;rounded=0;" vertex="1" parent="1">
          <mxGeometry x="665" y="385" width="60" height="30" as="geometry" />
        </mxCell>
        <mxCell id="pdf4x7FtPYtWmwUbSwYa-18" value="" style="endArrow=none;html=1;rounded=0;entryX=0.008;entryY=0.733;entryDx=0;entryDy=0;entryPerimeter=0;" edge="1" parent="1" target="pdf4x7FtPYtWmwUbSwYa-16">
          <mxGeometry width="50" height="50" relative="1" as="geometry">
            <mxPoint x="550" y="510" as="sourcePoint" />
            <mxPoint x="600" y="460" as="targetPoint" />
          </mxGeometry>
        </mxCell>
      </root>
    </mxGraphModel>
  </diagram>
</mxfile>
